<svg width="800" height="380" viewBox="0 0 800 380" fill="none" xmlns="http://www.w3.org/2000/svg">
  <style>
    
      .header { font: 600 20px 'Segoe UI', Ubuntu, Sans-Serif; fill: #c9d1d9; }
      .subheader { font: 400 12px 'Segoe UI', Ubuntu, Sans-Serif; fill: #8b949e; }
      
      /* Chart Text */
      .chart-label { font: 600 12px 'Segoe UI', Ubuntu, Sans-Serif; fill: #8b949e; }
      .chart-value { font: 600 24px 'Segoe UI', Ubuntu, Sans-Serif; fill: #c9d1d9; }
      .chart-sub { font: 400 11px 'Segoe UI', Ubuntu, Sans-Serif; fill: #8b949e; }
      
      /* Legend */
      .legend-key { font: 600 11px 'Segoe UI', Ubuntu, Sans-Serif; fill: #c9d1d9; }
      .legend-val { font: 400 11px 'Segoe UI', Ubuntu, Sans-Serif; fill: #8b949e; }
      
      /* Animations */
      .bar-anim { 
        animation: scaleUp 1s cubic-bezier(0.4, 0, 0.2, 1) forwards; 
        stroke-dasharray: 200; 
        stroke-dashoffset: 200; 
        transform-origin: center;
      }
      .slice-anim {
        animation: rotateIn 0.8s cubic-bezier(0.4, 0, 0.2, 1) forwards;
        transform-origin: 240px 170px; /* Updated transform origin to match new CY */
      }
      
      @keyframes scaleUp { to { stroke-dashoffset: 0; } }
      @keyframes rotateIn { 
        from { transform: scale(0.8) rotate(-10deg); opacity: 0; }
        to { transform: scale(1) rotate(0deg); opacity: 1; }
      }
    
    
  @keyframes fadeIn {
    from { opacity: 0; }
    to { opacity: 1; }
  }
  
  @keyframes slideInLeft {
    from { transform: translateX(-5px); opacity: 0; }
    to { transform: translateX(0); opacity: 1; }
  }
  
  @keyframes slideInUp {
    from { transform: translateY(5px); opacity: 0; }
    to { transform: translateY(0); opacity: 1; }
  }
  
  @keyframes growBar {
    from { transform: scaleX(0); transform-origin: left; }
    to { transform: scaleX(1); transform-origin: left; }
  }
  
  @keyframes pulse {
    0%, 100% { opacity: 1; }
    50% { opacity: 0.7; }
  }
  
  @keyframes popIn {
    0% { transform: scale(0); opacity: 0; }
    80% { transform: scale(1.1); }
    100% { transform: scale(1); opacity: 1; }
  }
  
  .fade-in { animation: fadeIn 1.2s ease-out; }
  .slide-in-left { animation: slideInLeft 1.2s cubic-bezier(0.4, 0, 0.2, 1); }
  .slide-in-up { animation: slideInUp 1.2s cubic-bezier(0.4, 0, 0.2, 1); }
  .grow-bar { animation: growBar 2.4s cubic-bezier(0.4, 0, 0.2, 1); }
  .pulse { animation: pulse 3s ease-in-out infinite; }
  .pop-in { animation: popIn 1.2s cubic-bezier(0.68, -0.55, 0.265, 1.55); }

  </style>
  
  <defs>
    <linearGradient id="gradient-blue" x1="0%" y1="0%" x2="100%" y2="0%">
      <stop offset="0%" stop-color="#0ea5e9" />
      <stop offset="100%" stop-color="#3b82f6" />
    </linearGradient>
    <linearGradient id="gradient-green" x1="0%" y1="0%" x2="100%" y2="0%">
      <stop offset="0%" stop-color="#10b981" />
      <stop offset="100%" stop-color="#059669" />
    </linearGradient>
    <linearGradient id="gradient-purple" x1="0%" y1="0%" x2="100%" y2="0%">
      <stop offset="0%" stop-color="#a855f7" />
      <stop offset="100%" stop-color="#8b5cf6" />
    </linearGradient>
    <linearGradient id="gradient-orange" x1="0%" y1="0%" x2="100%" y2="0%">
      <stop offset="0%" stop-color="#fbbf24" />
      <stop offset="100%" stop-color="#f97316" />
    </linearGradient>
    <linearGradient id="gradient-red" x1="0%" y1="0%" x2="100%" y2="0%">
      <stop offset="0%" stop-color="#ef4444" />
      <stop offset="100%" stop-color="#dc2626" />
    </linearGradient>
    <linearGradient id="gradient-yellow" x1="0%" y1="0%" x2="100%" y2="0%">
      <stop offset="0%" stop-color="#fbbf24" />
      <stop offset="100%" stop-color="#f59e0b" />
    </linearGradient>
    <linearGradient id="gradient-pink" x1="0%" y1="0%" x2="100%" y2="0%">
      <stop offset="0%" stop-color="#ec4899" />
      <stop offset="100%" stop-color="#db2777" />
    </linearGradient>
    <linearGradient id="gradient-teal" x1="0%" y1="0%" x2="100%" y2="0%">
      <stop offset="0%" stop-color="#14b8a6" />
      <stop offset="100%" stop-color="#0d9488" />
    </linearGradient>
    <linearGradient id="gradient-indigo" x1="0%" y1="0%" x2="100%" y2="0%">
      <stop offset="0%" stop-color="#6366f1" />
      <stop offset="100%" stop-color="#4f46e5" />
    </linearGradient>
    <linearGradient id="gradient-grey" x1="0%" y1="0%" x2="100%" y2="0%">
      <stop offset="0%" stop-color="#6b7280" />
      <stop offset="100%" stop-color="#4b5563" />
    </linearGradient>
  </defs>
  
  <rect x="0.5" y="0.5" width="799" height="379" rx="4.5" fill="#0d1117" stroke="#30363d"/>
  
  
      
      <defs>
        <linearGradient id="grad-day" x1="0%" y1="0%" x2="100%" y2="100%">
          <stop offset="0%" stop-color="#fbbf24" />
          <stop offset="100%" stop-color="#f59e0b" />
        </linearGradient>
        <linearGradient id="grad-night" x1="0%" y1="0%" x2="100%" y2="100%">
          <stop offset="0%" stop-color="#8b5cf6" />
          <stop offset="100%" stop-color="#6366f1" />
        </linearGradient>
      </defs>
    
      
      <!-- Header Section -->
      <g transform="translate(0, 0)">
        <text x="25" y="35" class="header">⏰ Productivity &amp; Weekly Cadence</text>
      </g>

      <!-- Left Panel: Weekly Cadence (Donut) -->
      <g transform="translate(20, 0)">
        
      
        <path d="M 240 103 L 240 85 A 85 85 0 0 1 309.7804943849983 121.46462523699628 L 295.00344851523397 131.74270459857354 A 67 67 0 0 0 240 103 Z" fill="#fbbf24" stroke="#0d1117" stroke-width="2"
              class="slice-anim" style="animation-delay: 0s">
          <title>Monday: 145</title>
        </path>
      
        <path d="M 295.00344851523397 131.74270459857354 L 309.7804943849983 121.46462523699628 A 85 85 0 0 1 323.6867824436348 184.88363007574878 L 305.964875573218 181.7318025302961 A 67 67 0 0 0 295.00344851523397 131.74270459857354 Z" fill="#34d399" stroke="#0d1117" stroke-width="2"
              class="slice-anim" style="animation-delay: 0.05s">
          <title>Tuesday: 118</title>
        </path>
      
        <path d="M 305.964875573218 181.7318025302961 L 323.6867824436348 184.88363007574878 A 85 85 0 0 1 255.71662958705957 253.53434954809407 L 252.38840214509403 235.84472258496828 A 67 67 0 0 0 305.964875573218 181.7318025302961 Z" fill="#60a5fa" stroke="#0d1117" stroke-width="2"
              class="slice-anim" style="animation-delay: 0.1s">
          <title>Wednesday: 182</title>
        </path>
      
        <path d="M 252.38840214509403 235.84472258496828 L 255.71662958705957 253.53434954809407 A 85 85 0 0 1 160.50823016011142 200.10080609754797 L 177.34178142032312 193.726517747479 A 67 67 0 0 0 252.38840214509403 235.84472258496828 Z" fill="#818cf8" stroke="#0d1117" stroke-width="2"
              class="slice-anim" style="animation-delay: 0.15000000000000002s">
          <title>Thursday: 210</title>
        </path>
      
        <path d="M 177.34178142032312 193.726517747479 L 160.50823016011142 200.10080609754797 A 85 85 0 0 1 231.5456497754151 85.42149231465442 L 233.3359827641507 103.33223511860996 A 67 67 0 0 0 177.34178142032312 193.726517747479 Z" fill="#a78bfa" stroke="#0d1117" stroke-width="2"
              class="slice-anim" style="animation-delay: 0.2s">
          <title>Friday: 276</title>
        </path>
      
        <path d="M 233.3359827641507 103.33223511860996 L 231.5456497754151 85.42149231465442 A 85 85 0 0 1 235.48567036486548 85.1199621351089 L 236.44164605230574 103.09455838885054 A 67 67 0 0 0 233.3359827641507 103.33223511860996 Z" fill="#fb7185" stroke="#0d1117" stroke-width="2"
              class="slice-anim" style="animation-delay: 0.25s">
          <title>Saturday: 7</title>
        </path>
      
        <path d="M 236.44164605230574 103.09455838885054 L 235.48567036486548 85.1199621351089 A 85 85 0 0 1 239.99999999999997 85 L 240 103 A 67 67 0 0 0 236.44164605230574 103.09455838885054 Z" fill="#f472b6" stroke="#0d1117" stroke-width="2"
              class="slice-anim" style="animation-delay: 0.30000000000000004s">
          <title>Sunday: 8</title>
        </path>
      
      
      <text x="240" y="165" text-anchor="middle" class="chart-value">946</text>
      <text x="240" y="185" text-anchor="middle" class="chart-sub">Contributions</text>
    
      
        <g transform="translate(30, 280)">
          <rect width="10" height="10" rx="3" fill="#fbbf24" />
          <text x="16" y="9" class="legend-key">Monday</text>
          <text x="105" y="9" text-anchor="end" class="legend-val">15%</text>
        </g>
      
        <g transform="translate(155, 280)">
          <rect width="10" height="10" rx="3" fill="#34d399" />
          <text x="16" y="9" class="legend-key">Tuesday</text>
          <text x="105" y="9" text-anchor="end" class="legend-val">12%</text>
        </g>
      
        <g transform="translate(30, 300)">
          <rect width="10" height="10" rx="3" fill="#60a5fa" />
          <text x="16" y="9" class="legend-key">Wednesday</text>
          <text x="105" y="9" text-anchor="end" class="legend-val">19%</text>
        </g>
      
        <g transform="translate(155, 300)">
          <rect width="10" height="10" rx="3" fill="#818cf8" />
          <text x="16" y="9" class="legend-key">Thursday</text>
          <text x="105" y="9" text-anchor="end" class="legend-val">22%</text>
        </g>
      
        <g transform="translate(30, 320)">
          <rect width="10" height="10" rx="3" fill="#a78bfa" />
          <text x="16" y="9" class="legend-key">Friday</text>
          <text x="105" y="9" text-anchor="end" class="legend-val">29%</text>
        </g>
      
        <g transform="translate(155, 320)">
          <rect width="10" height="10" rx="3" fill="#fb7185" />
          <text x="16" y="9" class="legend-key">Saturday</text>
          <text x="105" y="9" text-anchor="end" class="legend-val">1%</text>
        </g>
      
        <g transform="translate(30, 340)">
          <rect width="10" height="10" rx="3" fill="#f472b6" />
          <text x="16" y="9" class="legend-key">Sunday</text>
          <text x="105" y="9" text-anchor="end" class="legend-val">1%</text>
        </g>
      
      
      <g transform="translate(30, 110)">
         <text class="chart-sub" y="0">Avg / Day</text>
         <text class="chart-value" y="25" font-size="20">2.6</text>
         
         <text class="chart-sub" y="60">Most Active</text>
         <text class="chart-value" y="85" font-size="20" fill="#a78bfa">Friday</text>
      </g>
    
    
      </g>

      <!-- Vertical Divider Line -->
      <line x1="460" y1="70" x2="460" y2="340" stroke="#30363d" stroke-width="1" opacity="0.3" stroke-dasharray="4 4" />

      <!-- Right Panel: Productivity (Clock) -->
      <g transform="translate(430, 0)">
        
      
      <circle cx="185" cy="210" r="55" fill="none" stroke="#30363d" stroke-width="1" opacity="0.2" />
      <circle cx="185" cy="210" r="135" fill="none" stroke="#30363d" stroke-width="1" opacity="0.1" stroke-dasharray="4 4"/>
    
      
      <text x="185" y="65" text-anchor="middle" class="chart-label">12 AM</text><text x="340" y="214" text-anchor="middle" class="chart-label">6 AM</text><text x="185" y="360" text-anchor="middle" class="chart-label">12 PM</text><text x="30" y="214" text-anchor="middle" class="chart-label">6 PM</text>
      
      <text x="185" y="205" text-anchor="middle" class="chart-value" font-size="18">UTC</text>
      <text x="185" y="225" text-anchor="middle" class="chart-sub">Timezone</text>
    
    
      </g>
    
</svg>